<svg width="163" height="83" viewBox="0 0 163 83" fill="none" xmlns="http://www.w3.org/2000/svg">
<path d="M119.267 81.8834C135.327 81.8834 148.346 68.8642 148.346 52.8043C148.346 36.7443 135.327 23.7251 119.267 23.7251C103.207 23.7251 90.1875 36.7443 90.1875 52.8043C90.1875 68.8642 103.207 81.8834 119.267 81.8834Z" stroke="#EE7203" stroke-miterlimit="10"/>
<path d="M119.267 60.1459C135.327 60.1459 148.346 56.3515 148.346 51.6709C148.346 46.9903 135.327 43.1959 119.267 43.1959C103.207 43.1959 90.1875 46.9903 90.1875 51.6709C90.1875 56.3515 103.207 60.1459 119.267 60.1459Z" stroke="#EE7203" stroke-width="0.5" stroke-miterlimit="10"/>
<path d="M58.6918 1.125H0.708496V59.1083H58.6918V1.125Z" stroke="#EE7203" stroke-linecap="round" stroke-linejoin="round"/>
<path d="M77.9209 30.1791V26.7249H79.1542C79.4209 26.7249 79.6459 26.7749 79.8209 26.8708C79.9959 26.9708 80.1292 27.1041 80.2167 27.2708C80.3042 27.4416 80.3501 27.6291 80.3501 27.8416C80.3501 28.0541 80.3042 28.2458 80.2167 28.4124C80.1292 28.5833 79.9959 28.7166 79.8167 28.8124C79.6376 28.9124 79.4167 28.9583 79.1501 28.9583H78.3042V28.5166H79.1042C79.2751 28.5166 79.4126 28.4874 79.5167 28.4291C79.6209 28.3708 79.7001 28.2874 79.7501 28.1874C79.8001 28.0874 79.8251 27.9708 79.8251 27.8374C79.8251 27.7041 79.8001 27.5916 79.7501 27.4916C79.7001 27.3916 79.6209 27.3124 79.5167 27.2541C79.4126 27.1958 79.2709 27.1666 79.0959 27.1666H78.4417V30.1749H77.9209V30.1791Z" fill="white"/>
<path d="M81.9749 30.2333C81.7333 30.2333 81.5208 30.1791 81.3374 30.0666C81.1583 29.9541 81.0166 29.7999 80.9166 29.5999C80.8166 29.3999 80.7666 29.1666 80.7666 28.8999C80.7666 28.6333 80.8166 28.3958 80.9166 28.1958C81.0166 27.9958 81.1583 27.8374 81.3374 27.7249C81.5166 27.6124 81.7291 27.5583 81.9749 27.5583C82.2208 27.5583 82.4291 27.6124 82.6124 27.7249C82.7916 27.8374 82.9333 27.9916 83.0333 28.1958C83.1333 28.3999 83.1833 28.6333 83.1833 28.8999C83.1833 29.1666 83.1333 29.3999 83.0333 29.5999C82.9333 29.7999 82.7916 29.9541 82.6124 30.0666C82.4333 30.1791 82.2208 30.2333 81.9749 30.2333ZM81.9749 29.8083C82.1333 29.8083 82.2624 29.7666 82.3666 29.6833C82.4708 29.5999 82.5458 29.4874 82.5958 29.3499C82.6458 29.2124 82.6708 29.0583 82.6708 28.8916C82.6708 28.7249 82.6458 28.5749 82.5958 28.4374C82.5458 28.2999 82.4708 28.1874 82.3666 28.1041C82.2624 28.0208 82.1333 27.9791 81.9749 27.9791C81.8166 27.9791 81.6833 28.0208 81.5833 28.1041C81.4791 28.1874 81.4041 28.2999 81.3541 28.4374C81.3041 28.5749 81.2791 28.7291 81.2791 28.8916C81.2791 29.0541 81.3041 29.2124 81.3541 29.3499C81.4041 29.4874 81.4791 29.5999 81.5833 29.6833C81.6874 29.7666 81.8166 29.8083 81.9749 29.8083Z" fill="white"/>
<path d="M85.6833 28.2208L85.225 28.2999C85.2042 28.2416 85.175 28.1874 85.1333 28.1333C85.0917 28.0791 85.0375 28.0374 84.9667 28.0041C84.8958 27.9708 84.8083 27.9541 84.7042 27.9541C84.5625 27.9541 84.4417 27.9874 84.3458 28.0499C84.25 28.1124 84.2042 28.1958 84.2042 28.2958C84.2042 28.3833 84.2375 28.4541 84.3 28.5041C84.3625 28.5583 84.4667 28.5999 84.6125 28.6333L85.025 28.7291C85.2625 28.7833 85.4417 28.8708 85.5583 28.9833C85.675 29.0958 85.7333 29.2458 85.7333 29.4291C85.7333 29.5833 85.6875 29.7208 85.6 29.8416C85.5125 29.9624 85.3875 30.0583 85.2292 30.1249C85.0708 30.1958 84.8875 30.2291 84.675 30.2291C84.3833 30.2291 84.15 30.1666 83.9667 30.0416C83.7833 29.9166 83.6708 29.7416 83.6292 29.5124L84.1167 29.4374C84.1458 29.5624 84.2083 29.6583 84.3042 29.7249C84.4 29.7916 84.5208 29.8208 84.675 29.8208C84.8417 29.8208 84.9708 29.7874 85.0708 29.7166C85.1708 29.6458 85.2208 29.5624 85.2208 29.4624C85.2208 29.3833 85.1917 29.3124 85.1292 29.2583C85.0708 29.2041 84.9792 29.1624 84.8542 29.1333L84.4167 29.0374C84.175 28.9833 83.9958 28.8958 83.8792 28.7749C83.7625 28.6541 83.7083 28.5041 83.7083 28.3166C83.7083 28.1624 83.75 28.0291 83.8375 27.9166C83.925 27.8041 84.0417 27.7124 84.1917 27.6458C84.3417 27.5833 84.5167 27.5499 84.7083 27.5499C84.9875 27.5499 85.2083 27.6124 85.3708 27.7333C85.5333 27.8541 85.6375 28.0166 85.6917 28.2166L85.6833 28.2208Z" fill="white"/>
<path d="M87.4958 27.5874V27.9916H86.0791V27.5874H87.4958ZM86.4583 26.9666H86.9624V29.4166C86.9624 29.5124 86.9749 29.5874 87.0083 29.6374C87.0416 29.6874 87.0749 29.7208 87.1208 29.7374C87.1666 29.7541 87.2166 29.7624 87.2749 29.7624C87.3166 29.7624 87.3499 29.7624 87.3833 29.7541C87.4124 29.7499 87.4374 29.7458 87.4541 29.7416L87.5458 30.1583C87.5166 30.1708 87.4749 30.1833 87.4208 30.1916C87.3666 30.2041 87.2999 30.2083 87.2166 30.2124C87.0833 30.2124 86.9583 30.1916 86.8458 30.1416C86.7333 30.0916 86.6374 30.0166 86.5666 29.9124C86.4958 29.8083 86.4624 29.6791 86.4624 29.5208V26.9666H86.4583Z" fill="white"/>
<path d="M89.1126 31.2041C88.9084 31.2041 88.7293 31.1791 88.5834 31.1249C88.4376 31.0708 88.3168 30.9999 88.2209 30.9124C88.1251 30.8249 88.0584 30.7249 88.0126 30.6208L88.4459 30.4416C88.4751 30.4916 88.5168 30.5416 88.5668 30.5999C88.6168 30.6541 88.6876 30.7041 88.7751 30.7416C88.8626 30.7791 88.9793 30.7999 89.1168 30.7999C89.3084 30.7999 89.4668 30.7541 89.5918 30.6624C89.7168 30.5708 89.7793 30.4208 89.7793 30.2208V29.7124H89.7459C89.7168 29.7666 89.6709 29.8291 89.6168 29.8958C89.5584 29.9624 89.4834 30.0208 89.3834 30.0708C89.2834 30.1208 89.1543 30.1458 88.9959 30.1458C88.7918 30.1458 88.6084 30.0958 88.4418 29.9999C88.2793 29.9041 88.1501 29.7624 88.0543 29.5749C87.9584 29.3874 87.9126 29.1541 87.9126 28.8791C87.9126 28.6041 87.9584 28.3666 88.0543 28.1708C88.1501 27.9749 88.2751 27.8249 88.4418 27.7166C88.6084 27.6083 88.7918 27.5583 89.0001 27.5583C89.1626 27.5583 89.2918 27.5833 89.3918 27.6374C89.4918 27.6916 89.5668 27.7541 89.6251 27.8249C89.6834 27.8958 89.7251 27.9583 89.7543 28.0124H89.7918V27.5916H90.2876V30.2416C90.2876 30.4624 90.2376 30.6458 90.1334 30.7916C90.0293 30.9333 89.8918 31.0416 89.7126 31.1083C89.5376 31.1749 89.3376 31.2124 89.1168 31.2124L89.1126 31.2041ZM89.1084 29.7208C89.2543 29.7208 89.3751 29.6874 89.4751 29.6208C89.5751 29.5541 89.6501 29.4541 89.7043 29.3291C89.7584 29.2041 89.7834 29.0499 89.7834 28.8708C89.7834 28.6916 89.7584 28.5416 89.7043 28.4083C89.6543 28.2749 89.5751 28.1708 89.4751 28.0958C89.3751 28.0208 89.2501 27.9833 89.1043 27.9833C88.9584 27.9833 88.8251 28.0208 88.7251 28.0999C88.6251 28.1791 88.5459 28.2833 88.4959 28.4166C88.4459 28.5499 88.4209 28.6999 88.4209 28.8666C88.4209 29.0333 88.4459 29.1874 88.5001 29.3124C88.5501 29.4416 88.6293 29.5416 88.7293 29.6124C88.8293 29.6833 88.9584 29.7208 89.1043 29.7208H89.1084Z" fill="white"/>
<path d="M90.9585 30.1791V27.5874H91.446V27.9999H91.471C91.5168 27.8624 91.6002 27.7499 91.721 27.6708C91.8418 27.5916 91.9752 27.5499 92.1293 27.5499C92.1627 27.5499 92.2002 27.5499 92.2418 27.5499C92.2835 27.5499 92.321 27.5541 92.3418 27.5583V28.0416C92.3418 28.0416 92.2877 28.0291 92.2335 28.0208C92.1835 28.0124 92.1293 28.0083 92.0793 28.0083C91.9585 28.0083 91.8543 28.0333 91.7627 28.0833C91.671 28.1333 91.596 28.2041 91.5418 28.2916C91.4877 28.3791 91.4627 28.4791 91.4627 28.5916V30.1749H90.9585V30.1791Z" fill="white"/>
<path d="M93.5125 30.2374C93.35 30.2374 93.2 30.2083 93.0666 30.1458C92.9333 30.0833 92.8291 29.9958 92.75 29.8791C92.6708 29.7624 92.6333 29.6208 92.6333 29.4499C92.6333 29.3041 92.6625 29.1833 92.7166 29.0874C92.7708 28.9916 92.85 28.9166 92.9458 28.8624C93.0416 28.8083 93.15 28.7666 93.2666 28.7374C93.3833 28.7083 93.5041 28.6874 93.6291 28.6749C93.7833 28.6583 93.9083 28.6416 94.0083 28.6291C94.1083 28.6166 94.175 28.5999 94.2208 28.5708C94.2666 28.5458 94.2875 28.4999 94.2875 28.4374V28.4249C94.2875 28.2791 94.2458 28.1624 94.1625 28.0833C94.0791 28.0041 93.9583 27.9624 93.7958 27.9624C93.6333 27.9624 93.4916 27.9999 93.3958 28.0749C93.3 28.1499 93.2333 28.2333 93.1958 28.3249L92.7208 28.2166C92.7791 28.0583 92.8583 27.9333 92.9666 27.8333C93.075 27.7374 93.2 27.6666 93.3416 27.6208C93.4833 27.5749 93.6333 27.5541 93.7875 27.5541C93.8916 27.5541 94 27.5666 94.1166 27.5916C94.2333 27.6166 94.3416 27.6583 94.4458 27.7249C94.5458 27.7874 94.6291 27.8791 94.6958 27.9999C94.7625 28.1208 94.7916 28.2708 94.7916 28.4624V30.1833H94.3V29.8291H94.2791C94.2458 29.8958 94.1958 29.9583 94.1333 30.0208C94.0666 30.0833 93.9833 30.1374 93.8833 30.1791C93.7791 30.2208 93.6583 30.2416 93.5166 30.2416L93.5125 30.2374ZM93.6208 29.8333C93.7583 29.8333 93.8791 29.8041 93.9791 29.7499C94.0791 29.6958 94.1541 29.6208 94.2083 29.5333C94.2625 29.4458 94.2875 29.3499 94.2875 29.2458V28.9124C94.2875 28.9124 94.2333 28.9458 94.1833 28.9624C94.1333 28.9791 94.075 28.9916 94.0083 28.9999C93.9416 29.0124 93.8791 29.0208 93.8166 29.0291C93.7541 29.0374 93.7041 29.0458 93.6625 29.0499C93.5666 29.0624 93.475 29.0833 93.3958 29.1124C93.3166 29.1416 93.25 29.1833 93.2041 29.2374C93.1583 29.2916 93.1333 29.3624 93.1333 29.4541C93.1333 29.5791 93.1791 29.6749 93.2708 29.7374C93.3625 29.7999 93.4791 29.8333 93.625 29.8333H93.6208Z" fill="white"/>
<path d="M96.4334 30.2291C96.2251 30.2291 96.0376 30.1749 95.8751 30.0666C95.7126 29.9583 95.5834 29.8041 95.4917 29.6041C95.4001 29.4041 95.3542 29.1666 95.3542 28.8833C95.3542 28.5999 95.4001 28.3624 95.4959 28.1666C95.5918 27.9666 95.7167 27.8166 95.8834 27.7083C96.0459 27.6041 96.2334 27.5499 96.4417 27.5499C96.6042 27.5499 96.7334 27.5749 96.8293 27.6291C96.9293 27.6833 97.0043 27.7458 97.0584 27.8166C97.1126 27.8874 97.1543 27.9499 97.1876 28.0041H97.2167V26.7208H97.7209V30.1749H97.2292V29.7708H97.1876C97.1584 29.8249 97.1126 29.8874 97.0584 29.9583C97.0001 30.0291 96.9251 30.0916 96.8251 30.1458C96.7251 30.1999 96.6001 30.2249 96.4417 30.2249L96.4334 30.2291ZM96.5459 29.7999C96.6917 29.7999 96.8126 29.7624 96.9126 29.6833C97.0126 29.6041 97.0876 29.4999 97.1418 29.3624C97.1959 29.2249 97.2209 29.0666 97.2209 28.8833C97.2209 28.6999 97.1959 28.5458 97.1418 28.4124C97.0876 28.2791 97.0126 28.1708 96.9126 28.0958C96.8126 28.0208 96.6876 27.9833 96.5417 27.9833C96.3959 27.9833 96.2626 28.0208 96.1626 28.0999C96.0626 28.1791 95.9834 28.2874 95.9334 28.4208C95.8834 28.5583 95.8584 28.7124 95.8584 28.8833C95.8584 29.0541 95.8834 29.2124 95.9376 29.3499C95.9918 29.4874 96.0668 29.5958 96.1668 29.6791C96.2668 29.7624 96.3959 29.7999 96.5417 29.7999H96.5459Z" fill="white"/>
<path d="M99.525 30.2333C99.2833 30.2333 99.0708 30.1791 98.8875 30.0666C98.7042 29.9541 98.5667 29.7999 98.4667 29.5999C98.3667 29.3999 98.3167 29.1666 98.3167 28.8999C98.3167 28.6333 98.3667 28.3958 98.4667 28.1958C98.5667 27.9958 98.7083 27.8374 98.8875 27.7249C99.0667 27.6124 99.2792 27.5583 99.525 27.5583C99.7708 27.5583 99.9792 27.6124 100.162 27.7249C100.342 27.8374 100.483 27.9916 100.583 28.1958C100.683 28.3999 100.733 28.6333 100.733 28.8999C100.733 29.1666 100.683 29.3999 100.583 29.5999C100.483 29.7999 100.342 29.9541 100.162 30.0666C99.9833 30.1791 99.7708 30.2333 99.525 30.2333ZM99.525 29.8083C99.6833 29.8083 99.8125 29.7666 99.9167 29.6833C100.021 29.5999 100.096 29.4874 100.146 29.3499C100.196 29.2124 100.221 29.0583 100.221 28.8916C100.221 28.7249 100.196 28.5749 100.146 28.4374C100.096 28.2999 100.021 28.1874 99.9167 28.1041C99.8125 28.0208 99.6833 27.9791 99.525 27.9791C99.3667 27.9791 99.2333 28.0208 99.1292 28.1041C99.025 28.1874 98.95 28.2999 98.9 28.4374C98.85 28.5749 98.825 28.7291 98.825 28.8916C98.825 29.0541 98.85 29.2124 98.9 29.3499C98.95 29.4874 99.025 29.5999 99.1292 29.6833C99.2333 29.7666 99.3625 29.8083 99.525 29.8083Z" fill="white"/>
<path d="M103.671 30.2333C103.417 30.2333 103.196 30.1791 103.013 30.0666C102.829 29.9583 102.687 29.8041 102.588 29.6041C102.488 29.4041 102.438 29.1708 102.438 28.8999C102.438 28.6291 102.488 28.3999 102.588 28.1999C102.687 27.9958 102.825 27.8416 103.004 27.7249C103.183 27.6083 103.392 27.5541 103.633 27.5541C103.779 27.5541 103.921 27.5791 104.058 27.6249C104.196 27.6749 104.317 27.7499 104.429 27.8541C104.537 27.9583 104.625 28.0916 104.688 28.2583C104.75 28.4249 104.783 28.6249 104.783 28.8583V29.0374H102.725V28.6583H104.292C104.292 28.5249 104.267 28.4083 104.213 28.3041C104.158 28.1999 104.083 28.1208 103.987 28.0624C103.892 28.0041 103.775 27.9749 103.646 27.9749C103.504 27.9749 103.379 28.0083 103.275 28.0791C103.171 28.1499 103.088 28.2374 103.033 28.3499C102.975 28.4624 102.95 28.5791 102.95 28.7083V29.0041C102.95 29.1791 102.979 29.3249 103.042 29.4458C103.104 29.5666 103.188 29.6583 103.3 29.7249C103.408 29.7874 103.537 29.8208 103.687 29.8208C103.783 29.8208 103.871 29.8083 103.95 29.7791C104.029 29.7499 104.096 29.7083 104.154 29.6541C104.213 29.5999 104.254 29.5333 104.287 29.4499L104.767 29.5374C104.729 29.6791 104.658 29.7999 104.563 29.9041C104.463 30.0083 104.342 30.0916 104.192 30.1499C104.046 30.2083 103.875 30.2374 103.687 30.2374L103.671 30.2333Z" fill="white"/>
<path d="M105.85 28.6416V30.1791H105.346V27.5874H105.829V28.0083H105.863C105.921 27.8708 106.017 27.7624 106.142 27.6791C106.271 27.5958 106.429 27.5541 106.625 27.5541C106.8 27.5541 106.954 27.5916 107.088 27.6666C107.221 27.7416 107.325 27.8499 107.396 27.9958C107.471 28.1416 107.504 28.3208 107.504 28.5333V30.1791H107V28.5916C107 28.4041 106.95 28.2583 106.854 28.1499C106.754 28.0416 106.621 27.9916 106.45 27.9916C106.333 27.9916 106.229 28.0166 106.138 28.0666C106.046 28.1166 105.975 28.1916 105.925 28.2874C105.871 28.3833 105.846 28.4999 105.846 28.6374L105.85 28.6416Z" fill="white"/>
<path d="M111.7 26.7249H112.225V28.9958C112.225 29.2374 112.167 29.4499 112.054 29.6374C111.942 29.8249 111.779 29.9708 111.575 30.0749C111.371 30.1791 111.129 30.2333 110.85 30.2333C110.571 30.2333 110.333 30.1791 110.129 30.0749C109.925 29.9666 109.763 29.8208 109.65 29.6374C109.538 29.4499 109.479 29.2374 109.479 28.9958V26.7249H110V28.9541C110 29.1083 110.033 29.2499 110.104 29.3708C110.175 29.4916 110.271 29.5874 110.4 29.6583C110.525 29.7291 110.679 29.7624 110.854 29.7624C111.029 29.7624 111.179 29.7291 111.308 29.6583C111.438 29.5874 111.533 29.4958 111.6 29.3708C111.667 29.2499 111.7 29.1124 111.7 28.9541V26.7249Z" fill="white"/>
<path d="M113.346 26.7249L114.171 28.0749H114.196L115.021 26.7249H115.625L114.55 28.4499L115.633 30.1791H115.025L114.196 28.8458H114.171L113.342 30.1791H112.733L113.833 28.4499L112.738 26.7249H113.342H113.346Z" fill="white"/>
<path d="M117.421 26.5624L116.308 30.6999H115.858L116.971 26.5624H117.421Z" fill="white"/>
<path d="M120.112 26.7249H120.633V28.9958C120.633 29.2374 120.575 29.4499 120.462 29.6374C120.35 29.8249 120.187 29.9708 119.983 30.0749C119.779 30.1791 119.537 30.2333 119.258 30.2333C118.979 30.2333 118.742 30.1791 118.537 30.0749C118.333 29.9666 118.171 29.8208 118.058 29.6374C117.946 29.4541 117.887 29.2374 117.887 28.9958V26.7249H118.408V28.9541C118.408 29.1083 118.442 29.2499 118.512 29.3708C118.583 29.4916 118.679 29.5874 118.808 29.6583C118.933 29.7291 119.087 29.7624 119.258 29.7624C119.429 29.7624 119.583 29.7291 119.712 29.6583C119.842 29.5874 119.937 29.4958 120.004 29.3708C120.071 29.2499 120.104 29.1124 120.104 28.9541V26.7249H120.112Z" fill="white"/>
<path d="M121.917 26.7249V30.1791H121.396V26.7249H121.917Z" fill="white"/>
<path d="M78.1959 35.8999C78.1209 35.8999 78.05 35.8958 77.9917 35.8833C77.9334 35.8708 77.8834 35.8583 77.8542 35.8458L77.975 35.4333C78.0667 35.4583 78.15 35.4708 78.2209 35.4666C78.2917 35.4624 78.3584 35.4374 78.4126 35.3874C78.4667 35.3374 78.5167 35.2541 78.5584 35.1416L78.6209 34.9708L77.675 32.3458H78.2167L78.8709 34.3583H78.8959L79.5501 32.3458H80.0917L79.0251 35.2833C78.9751 35.4166 78.9125 35.5333 78.8375 35.6249C78.7625 35.7208 78.6709 35.7874 78.5626 35.8374C78.4584 35.8833 78.3334 35.9083 78.1959 35.9083V35.8999Z" fill="white"/>
<path d="M82.9875 34.9291H81.8708V31.4749H83.025C83.3625 31.4749 83.6542 31.5458 83.8959 31.6833C84.1375 31.8208 84.325 32.0166 84.4542 32.2749C84.5834 32.5333 84.65 32.8416 84.65 33.1999C84.65 33.5583 84.5834 33.8708 84.4542 34.1291C84.325 34.3874 84.1334 34.5874 83.8875 34.7249C83.6417 34.8624 83.3417 34.9333 82.9917 34.9333L82.9875 34.9291ZM82.3917 34.4749H82.9584C83.2209 34.4749 83.4417 34.4249 83.6125 34.3249C83.7875 34.2249 83.9167 34.0791 84.0042 33.8916C84.0917 33.7041 84.1334 33.4708 84.1334 33.1958C84.1334 32.9208 84.0917 32.6958 84.0042 32.5041C83.9167 32.3166 83.7917 32.1708 83.6209 32.0749C83.45 31.9791 83.2417 31.9291 82.9875 31.9291H82.3875V34.4708L82.3917 34.4749Z" fill="white"/>
<path d="M86.3708 34.9791C86.1166 34.9791 85.8958 34.9249 85.7124 34.8124C85.5291 34.7041 85.3875 34.5499 85.2875 34.3499C85.1875 34.1499 85.1375 33.9166 85.1375 33.6458C85.1375 33.3749 85.1875 33.1458 85.2875 32.9458C85.3875 32.7416 85.525 32.5874 85.7041 32.4708C85.8833 32.3541 86.0916 32.2999 86.3333 32.2999C86.4791 32.2999 86.6208 32.3249 86.7583 32.3708C86.8958 32.4208 87.0166 32.4958 87.1291 32.5999C87.2375 32.7041 87.325 32.8374 87.3875 33.0041C87.45 33.1708 87.4833 33.3708 87.4833 33.6041V33.7833H85.425V33.4041H86.9916C86.9916 33.2708 86.9666 33.1541 86.9125 33.0499C86.8583 32.9458 86.7833 32.8666 86.6875 32.8083C86.5916 32.7499 86.475 32.7208 86.3458 32.7208C86.2041 32.7208 86.0791 32.7541 85.975 32.8249C85.8708 32.8958 85.7874 32.9833 85.7333 33.0958C85.6749 33.2083 85.65 33.3249 85.65 33.4541V33.7499C85.65 33.9249 85.6791 34.0708 85.7416 34.1916C85.8041 34.3124 85.8874 34.4041 85.9999 34.4708C86.1083 34.5333 86.2375 34.5666 86.3875 34.5666C86.4833 34.5666 86.5708 34.5541 86.6499 34.5249C86.7291 34.4958 86.7958 34.4541 86.8541 34.3999C86.9125 34.3458 86.9541 34.2791 86.9875 34.1958L87.4666 34.2833C87.4291 34.4249 87.3583 34.5458 87.2625 34.6499C87.1625 34.7541 87.0416 34.8374 86.8916 34.8958C86.7458 34.9541 86.575 34.9833 86.3875 34.9833L86.3708 34.9791Z" fill="white"/>
<path d="M89.9875 32.9708L89.5292 33.0499C89.5083 32.9916 89.4792 32.9374 89.4375 32.8833C89.3958 32.8291 89.3417 32.7874 89.2708 32.7541C89.2 32.7208 89.1125 32.7041 89.0083 32.7041C88.8667 32.7041 88.7458 32.7374 88.65 32.7999C88.5542 32.8624 88.5084 32.9458 88.5084 33.0458C88.5084 33.1333 88.5417 33.2041 88.6042 33.2541C88.6667 33.3083 88.7708 33.3499 88.9167 33.3833L89.3292 33.4791C89.5667 33.5333 89.7458 33.6208 89.8625 33.7333C89.9792 33.8458 90.0375 33.9958 90.0375 34.1791C90.0375 34.3333 89.9917 34.4708 89.9042 34.5916C89.8167 34.7124 89.6917 34.8083 89.5333 34.8749C89.375 34.9458 89.1917 34.9791 88.9792 34.9791C88.6875 34.9791 88.4542 34.9166 88.2708 34.7916C88.0875 34.6666 87.975 34.4916 87.9333 34.2624L88.4208 34.1874C88.45 34.3124 88.5125 34.4083 88.6084 34.4749C88.7042 34.5416 88.825 34.5708 88.9792 34.5708C89.1459 34.5708 89.275 34.5374 89.375 34.4666C89.475 34.3958 89.525 34.3124 89.525 34.2124C89.525 34.1333 89.4958 34.0624 89.4333 34.0083C89.375 33.9541 89.2833 33.9124 89.1583 33.8833L88.7208 33.7874C88.4792 33.7333 88.3 33.6458 88.1834 33.5249C88.0667 33.4041 88.0125 33.2541 88.0125 33.0666C88.0125 32.9124 88.0542 32.7791 88.1417 32.6666C88.2292 32.5541 88.3459 32.4624 88.4959 32.3958C88.6459 32.3333 88.8208 32.2999 89.0125 32.2999C89.2917 32.2999 89.5125 32.3624 89.675 32.4833C89.8375 32.6041 89.9417 32.7666 89.9958 32.9666L89.9875 32.9708Z" fill="white"/>
<path d="M91.3418 34.9874C91.1793 34.9874 91.0293 34.9583 90.896 34.8958C90.7626 34.8333 90.6585 34.7458 90.5835 34.6291C90.5085 34.5124 90.4668 34.3708 90.4668 34.1999C90.4668 34.0541 90.496 33.9333 90.5501 33.8374C90.6043 33.7416 90.6835 33.6666 90.7793 33.6124C90.8751 33.5583 90.9835 33.5166 91.1001 33.4874C91.2168 33.4583 91.3376 33.4374 91.4626 33.4249C91.6168 33.4083 91.7418 33.3916 91.8418 33.3791C91.9376 33.3666 92.0085 33.3499 92.0543 33.3208C92.1001 33.2958 92.121 33.2499 92.121 33.1874V33.1749C92.121 33.0291 92.0793 32.9124 91.996 32.8333C91.9126 32.7541 91.7918 32.7124 91.6293 32.7124C91.4668 32.7124 91.3251 32.7499 91.2293 32.8249C91.1335 32.8999 91.0668 32.9833 91.0293 33.0749L90.5543 32.9666C90.6085 32.8083 90.6918 32.6833 90.8001 32.5833C90.9085 32.4874 91.0335 32.4166 91.1751 32.3708C91.3168 32.3249 91.4668 32.3041 91.621 32.3041C91.7251 32.3041 91.8335 32.3166 91.9501 32.3416C92.0668 32.3666 92.1751 32.4083 92.2793 32.4749C92.3793 32.5374 92.4626 32.6291 92.5293 32.7499C92.596 32.8708 92.6293 33.0208 92.6293 33.2124V34.9333H92.1376V34.5791H92.1168C92.0835 34.6458 92.0335 34.7083 91.971 34.7708C91.9043 34.8333 91.821 34.8874 91.721 34.9291C91.6168 34.9708 91.496 34.9916 91.3543 34.9916L91.3418 34.9874ZM91.4501 34.5833C91.5876 34.5833 91.7085 34.5541 91.8085 34.4999C91.9085 34.4458 91.9835 34.3708 92.0376 34.2833C92.0918 34.1958 92.1168 34.0999 92.1168 33.9958V33.6624C92.1168 33.6624 92.0626 33.6958 92.0126 33.7124C91.9626 33.7291 91.9043 33.7416 91.8376 33.7499C91.771 33.7624 91.7085 33.7708 91.646 33.7791C91.5835 33.7874 91.5335 33.7958 91.4918 33.7999C91.3918 33.8124 91.3043 33.8333 91.2251 33.8624C91.146 33.8916 91.0793 33.9333 91.0335 33.9874C90.9876 34.0416 90.9626 34.1124 90.9626 34.2041C90.9626 34.3291 91.0085 34.4249 91.1001 34.4874C91.1918 34.5499 91.3085 34.5833 91.4543 34.5833H91.4501Z" fill="white"/>
<path d="M93.2917 34.9291V32.3374H93.7792V32.7499H93.8042C93.8501 32.6124 93.9334 32.4999 94.0543 32.4208C94.1751 32.3416 94.3084 32.2999 94.4626 32.2999C94.4959 32.2999 94.5334 32.2999 94.5751 32.2999C94.6168 32.2999 94.6543 32.3041 94.6751 32.3083V32.7916C94.6751 32.7916 94.6209 32.7791 94.5667 32.7708C94.5167 32.7624 94.4626 32.7583 94.4126 32.7583C94.2918 32.7583 94.1876 32.7833 94.0959 32.8333C94.0043 32.8833 93.9293 32.9541 93.8751 33.0416C93.8209 33.1291 93.7959 33.2291 93.7959 33.3416V34.9249H93.2917V34.9291Z" fill="white"/>
<path d="M95.1167 34.9291V32.3374H95.6042V32.7499H95.6292C95.675 32.6124 95.7584 32.4999 95.8792 32.4208C96 32.3416 96.1334 32.2999 96.2875 32.2999C96.3209 32.2999 96.3584 32.2999 96.4 32.2999C96.4417 32.2999 96.4792 32.3041 96.5 32.3083V32.7916C96.5 32.7916 96.4417 32.7791 96.3917 32.7708C96.3417 32.7624 96.2875 32.7583 96.2375 32.7583C96.1167 32.7583 96.0125 32.7833 95.9209 32.8333C95.8292 32.8833 95.7542 32.9541 95.7 33.0416C95.6459 33.1291 95.6209 33.2291 95.6209 33.3416V34.9249H95.1167V34.9291Z" fill="white"/>
<path d="M97.9417 34.9791C97.7001 34.9791 97.4876 34.9249 97.3042 34.8124C97.1251 34.6999 96.9834 34.5458 96.8834 34.3458C96.7834 34.1458 96.7334 33.9124 96.7334 33.6458C96.7334 33.3791 96.7834 33.1416 96.8834 32.9416C96.9834 32.7416 97.1251 32.5833 97.3042 32.4708C97.4834 32.3583 97.6959 32.3041 97.9417 32.3041C98.1876 32.3041 98.3959 32.3583 98.5792 32.4708C98.7626 32.5833 98.9001 32.7374 99.0001 32.9416C99.1001 33.1416 99.1501 33.3791 99.1501 33.6458C99.1501 33.9124 99.1001 34.1458 99.0001 34.3458C98.9001 34.5458 98.7584 34.6999 98.5792 34.8124C98.4001 34.9249 98.1876 34.9791 97.9417 34.9791ZM97.9417 34.5541C98.1001 34.5541 98.2292 34.5124 98.3334 34.4291C98.4376 34.3458 98.5126 34.2333 98.5626 34.0958C98.6126 33.9583 98.6376 33.8041 98.6376 33.6374C98.6376 33.4708 98.6126 33.3208 98.5626 33.1833C98.5126 33.0458 98.4376 32.9333 98.3334 32.8499C98.2292 32.7666 98.1001 32.7249 97.9417 32.7249C97.7834 32.7249 97.6501 32.7666 97.5501 32.8499C97.4459 32.9333 97.3709 33.0458 97.3209 33.1833C97.2709 33.3208 97.2459 33.4749 97.2459 33.6374C97.2459 33.7999 97.2709 33.9583 97.3209 34.0958C97.3709 34.2333 97.4459 34.3458 97.5501 34.4291C97.6542 34.5124 97.7834 34.5541 97.9417 34.5541Z" fill="white"/>
<path d="M100.213 31.4749V34.9291H99.7085V31.4749H100.213Z" fill="white"/>
<path d="M101.396 31.4749V34.9291H100.892V31.4749H101.396Z" fill="white"/>
<path d="M103.167 34.9791C102.925 34.9791 102.713 34.9249 102.529 34.8124C102.35 34.6999 102.208 34.5458 102.108 34.3458C102.008 34.1458 101.958 33.9124 101.958 33.6458C101.958 33.3791 102.008 33.1416 102.108 32.9416C102.208 32.7416 102.35 32.5833 102.529 32.4708C102.708 32.3583 102.921 32.3041 103.167 32.3041C103.413 32.3041 103.621 32.3583 103.804 32.4708C103.983 32.5833 104.125 32.7374 104.225 32.9416C104.325 33.1416 104.375 33.3791 104.375 33.6458C104.375 33.9124 104.325 34.1458 104.225 34.3458C104.125 34.5458 103.983 34.6999 103.804 34.8124C103.625 34.9249 103.413 34.9791 103.167 34.9791ZM103.167 34.5541C103.325 34.5541 103.454 34.5124 103.558 34.4291C103.663 34.3458 103.738 34.2333 103.788 34.0958C103.838 33.9583 103.863 33.8041 103.863 33.6374C103.863 33.4708 103.838 33.3208 103.788 33.1833C103.738 33.0458 103.663 32.9333 103.558 32.8499C103.454 32.7666 103.325 32.7249 103.167 32.7249C103.008 32.7249 102.875 32.7666 102.771 32.8499C102.667 32.9333 102.592 33.0458 102.542 33.1833C102.492 33.3208 102.467 33.4749 102.467 33.6374C102.467 33.7999 102.492 33.9583 102.542 34.0958C102.592 34.2333 102.667 34.3458 102.771 34.4291C102.875 34.5124 103.004 34.5541 103.167 34.5541Z" fill="white"/>
<path d="M106.908 34.9291L105.95 31.4749H106.5L107.175 34.1499H107.208L107.908 31.4749H108.45L109.15 34.1499H109.183L109.854 31.4749H110.404L109.446 34.9291H108.921L108.196 32.3416H108.171L107.446 34.9291H106.921H106.908Z" fill="white"/>
<path d="M111.7 34.9791C111.446 34.9791 111.225 34.9249 111.042 34.8124C110.858 34.7041 110.717 34.5499 110.617 34.3499C110.517 34.1499 110.467 33.9166 110.467 33.6458C110.467 33.3749 110.517 33.1458 110.617 32.9458C110.717 32.7416 110.854 32.5874 111.033 32.4708C111.213 32.3541 111.421 32.2999 111.663 32.2999C111.808 32.2999 111.95 32.3249 112.088 32.3708C112.225 32.4208 112.346 32.4958 112.458 32.5999C112.567 32.7041 112.654 32.8374 112.717 33.0041C112.779 33.1708 112.813 33.3708 112.813 33.6041V33.7833H110.754V33.4041H112.321C112.321 33.2708 112.296 33.1541 112.242 33.0499C112.188 32.9458 112.113 32.8666 112.017 32.8083C111.921 32.7499 111.804 32.7208 111.675 32.7208C111.533 32.7208 111.408 32.7541 111.304 32.8249C111.2 32.8958 111.117 32.9833 111.063 33.0958C111.004 33.2083 110.979 33.3249 110.979 33.4541V33.7499C110.979 33.9249 111.008 34.0708 111.071 34.1916C111.133 34.3124 111.217 34.4041 111.329 34.4708C111.438 34.5333 111.567 34.5666 111.717 34.5666C111.813 34.5666 111.9 34.5541 111.979 34.5249C112.058 34.4958 112.125 34.4541 112.183 34.3999C112.242 34.3458 112.283 34.2791 112.317 34.1958L112.796 34.2833C112.758 34.4249 112.688 34.5458 112.592 34.6499C112.492 34.7541 112.371 34.8374 112.221 34.8958C112.075 34.9541 111.904 34.9833 111.717 34.9833L111.7 34.9791Z" fill="white"/>
<path d="M113.413 34.9291V31.4749H113.917V32.7583H113.946C113.975 32.7041 114.017 32.6416 114.071 32.5708C114.125 32.4999 114.204 32.4374 114.3 32.3833C114.396 32.3291 114.529 32.3041 114.688 32.3041C114.896 32.3041 115.083 32.3583 115.246 32.4624C115.408 32.5666 115.538 32.7208 115.633 32.9208C115.729 33.1208 115.775 33.3583 115.775 33.6374C115.775 33.9166 115.729 34.1583 115.633 34.3583C115.542 34.5583 115.413 34.7124 115.25 34.8208C115.088 34.9291 114.9 34.9833 114.692 34.9833C114.533 34.9833 114.404 34.9583 114.308 34.9041C114.208 34.8499 114.129 34.7874 114.075 34.7166C114.017 34.6458 113.975 34.5833 113.946 34.5291H113.904V34.9333H113.413V34.9291ZM113.908 33.6333C113.908 33.8166 113.933 33.9749 113.988 34.1124C114.042 34.2499 114.117 34.3583 114.217 34.4333C114.317 34.5083 114.438 34.5499 114.583 34.5499C114.729 34.5499 114.858 34.5083 114.963 34.4291C115.063 34.3499 115.142 34.2374 115.192 34.0999C115.246 33.9624 115.271 33.8041 115.271 33.6333C115.271 33.4624 115.246 33.3083 115.196 33.1708C115.146 33.0333 115.067 32.9291 114.967 32.8499C114.867 32.7708 114.738 32.7333 114.588 32.7333C114.438 32.7333 114.317 32.7708 114.217 32.8458C114.117 32.9208 114.042 33.0249 113.988 33.1624C113.933 33.2999 113.908 33.4541 113.908 33.6333Z" fill="white"/>
<path d="M117.642 34.9291V31.4749H119.783V31.9249H118.162V32.9791H119.629V33.4249H118.162V34.9291H117.642Z" fill="white"/>
<path d="M120.354 34.9291V32.3374H120.842V32.7499H120.867C120.913 32.6124 120.996 32.4999 121.117 32.4208C121.238 32.3416 121.371 32.2999 121.525 32.2999C121.558 32.2999 121.596 32.2999 121.638 32.2999C121.679 32.2999 121.717 32.3041 121.738 32.3083V32.7916C121.738 32.7916 121.683 32.7791 121.629 32.7708C121.579 32.7624 121.525 32.7583 121.475 32.7583C121.354 32.7583 121.25 32.7833 121.158 32.8333C121.067 32.8833 120.992 32.9541 120.938 33.0416C120.883 33.1291 120.858 33.2291 120.858 33.3416V34.9249H120.354V34.9291Z" fill="white"/>
<path d="M123.175 34.9791C122.933 34.9791 122.721 34.9249 122.538 34.8124C122.358 34.6999 122.217 34.5458 122.117 34.3458C122.017 34.1458 121.967 33.9124 121.967 33.6458C121.967 33.3791 122.017 33.1416 122.117 32.9416C122.217 32.7416 122.358 32.5833 122.538 32.4708C122.717 32.3583 122.929 32.3041 123.175 32.3041C123.421 32.3041 123.629 32.3583 123.813 32.4708C123.992 32.5833 124.133 32.7374 124.233 32.9416C124.333 33.1458 124.383 33.3791 124.383 33.6458C124.383 33.9124 124.333 34.1458 124.233 34.3458C124.133 34.5458 123.992 34.6999 123.813 34.8124C123.633 34.9249 123.421 34.9791 123.175 34.9791ZM123.175 34.5541C123.333 34.5541 123.463 34.5124 123.567 34.4291C123.671 34.3458 123.746 34.2333 123.796 34.0958C123.846 33.9583 123.871 33.8041 123.871 33.6374C123.871 33.4708 123.846 33.3208 123.796 33.1833C123.746 33.0458 123.671 32.9333 123.567 32.8499C123.463 32.7666 123.333 32.7249 123.175 32.7249C123.017 32.7249 122.883 32.7666 122.783 32.8499C122.679 32.9333 122.604 33.0458 122.554 33.1833C122.504 33.3208 122.479 33.4749 122.479 33.6374C122.479 33.7999 122.504 33.9583 122.554 34.0958C122.604 34.2333 122.679 34.3458 122.783 34.4291C122.888 34.5124 123.017 34.5541 123.175 34.5541Z" fill="white"/>
<path d="M125.45 33.3916V34.9291H124.946V32.3374H125.429V32.7583H125.462C125.521 32.6208 125.617 32.5124 125.742 32.4291C125.871 32.3458 126.029 32.3041 126.225 32.3041C126.4 32.3041 126.554 32.3416 126.687 32.4166C126.821 32.4916 126.925 32.5999 126.996 32.7458C127.067 32.8916 127.104 33.0708 127.104 33.2833V34.9291H126.6V33.3416C126.6 33.1541 126.55 33.0083 126.454 32.8999C126.358 32.7916 126.221 32.7416 126.05 32.7416C125.933 32.7416 125.829 32.7666 125.737 32.8166C125.646 32.8666 125.575 32.9416 125.525 33.0374C125.471 33.1333 125.446 33.2499 125.446 33.3874L125.45 33.3916Z" fill="white"/>
<path d="M128.992 32.3374V32.7416H127.575V32.3374H128.992ZM127.954 31.7166H128.458V34.1666C128.458 34.2624 128.475 34.3374 128.504 34.3874C128.533 34.4374 128.571 34.4708 128.617 34.4874C128.662 34.5041 128.712 34.5124 128.771 34.5124C128.812 34.5124 128.846 34.5124 128.879 34.5041C128.912 34.4958 128.933 34.4958 128.95 34.4916L129.042 34.9083C129.012 34.9208 128.971 34.9333 128.917 34.9416C128.862 34.9541 128.796 34.9583 128.712 34.9624C128.579 34.9624 128.454 34.9416 128.342 34.8916C128.225 34.8416 128.133 34.7666 128.062 34.6624C127.992 34.5583 127.954 34.4291 127.954 34.2708V31.7166Z" fill="white"/>
<path d="M130.846 34.9291V31.4749H133.013V31.9249H131.367V32.9791H132.9V33.4249H131.367V34.4833H133.033V34.9333H130.846V34.9291Z" fill="white"/>
<path d="M134.175 33.3916V34.9291H133.671V32.3374H134.154V32.7583H134.188C134.246 32.6208 134.342 32.5124 134.467 32.4291C134.596 32.3458 134.754 32.3041 134.95 32.3041C135.125 32.3041 135.279 32.3416 135.413 32.4166C135.546 32.4916 135.65 32.5999 135.721 32.7458C135.796 32.8916 135.829 33.0708 135.829 33.2833V34.9291H135.325V33.3416C135.325 33.1541 135.275 33.0083 135.179 32.8999C135.083 32.7916 134.946 32.7416 134.775 32.7416C134.658 32.7416 134.554 32.7666 134.463 32.8166C134.371 32.8666 134.3 32.9416 134.25 33.0374C134.196 33.1333 134.171 33.2499 134.171 33.3874L134.175 33.3916Z" fill="white"/>
<path d="M137.475 34.9791C137.267 34.9791 137.079 34.9249 136.917 34.8166C136.754 34.7083 136.625 34.5541 136.534 34.3541C136.442 34.1541 136.396 33.9166 136.396 33.6333C136.396 33.3499 136.442 33.1124 136.538 32.9166C136.633 32.7166 136.759 32.5666 136.925 32.4583C137.088 32.3541 137.275 32.2999 137.484 32.2999C137.646 32.2999 137.775 32.3249 137.871 32.3791C137.971 32.4333 138.046 32.4958 138.1 32.5666C138.154 32.6374 138.196 32.6999 138.229 32.7541H138.259V31.4708H138.763V34.9249H138.271V34.5208H138.229C138.2 34.5749 138.154 34.6374 138.1 34.7083C138.042 34.7791 137.967 34.8416 137.867 34.8958C137.767 34.9499 137.642 34.9749 137.484 34.9749L137.475 34.9791ZM137.588 34.5499C137.734 34.5499 137.854 34.5124 137.954 34.4333C138.054 34.3541 138.129 34.2499 138.184 34.1124C138.238 33.9749 138.263 33.8166 138.263 33.6333C138.263 33.4499 138.238 33.2958 138.184 33.1624C138.129 33.0291 138.054 32.9208 137.954 32.8458C137.854 32.7708 137.729 32.7333 137.584 32.7333C137.438 32.7333 137.304 32.7708 137.204 32.8499C137.104 32.9291 137.025 33.0374 136.975 33.1708C136.925 33.3083 136.9 33.4624 136.9 33.6333C136.9 33.8041 136.925 33.9624 136.979 34.0999C137.033 34.2374 137.109 34.3458 137.209 34.4291C137.309 34.5124 137.438 34.5499 137.584 34.5499H137.588Z" fill="white"/>
<path d="M52.3833 23.8292H54.3583V30.9542C54.3583 31.7375 54.175 32.4208 53.8083 33.0167C53.4416 33.6083 52.925 34.0708 52.2625 34.4042C51.6 34.7375 50.8208 34.9042 49.9333 34.9042C49.0458 34.9042 48.2625 34.7375 47.6 34.4042C46.9375 34.0708 46.4208 33.6083 46.0542 33.0167C45.6875 32.425 45.5042 31.7375 45.5042 30.9542V23.8292H47.4791V30.7917C47.4791 31.2458 47.5791 31.65 47.7791 32.0083C47.9791 32.3625 48.2625 32.6417 48.6291 32.8417C48.9958 33.0417 49.4291 33.1417 49.9291 33.1417C50.4291 33.1417 50.8625 33.0417 51.2291 32.8417C51.5958 32.6417 51.8791 32.3625 52.0791 32.0083C52.2791 31.6542 52.3791 31.25 52.3791 30.7917V23.8292H52.3833Z" fill="white"/>
<path d="M58.4877 23.8292V34.7375H56.5127V23.8292H58.4877Z" fill="white"/>
<path d="M41.0709 23.3167L37.5542 36.3792H35.8667L39.3834 23.3167H41.0709Z" fill="white"/>
<path d="M20.4876 23.8292H22.4626V30.9542C22.4626 31.7375 22.2792 32.4208 21.9126 33.0167C21.5459 33.6083 21.0292 34.0708 20.3667 34.4042C19.7042 34.7375 18.9251 34.9042 18.0376 34.9042C17.1501 34.9042 16.3667 34.7375 15.7042 34.4042C15.0417 34.0708 14.5251 33.6083 14.1584 33.0167C13.7917 32.425 13.6084 31.7375 13.6084 30.9542V23.8292H15.5834V30.7917C15.5834 31.2458 15.6834 31.65 15.8834 32.0083C16.0834 32.3625 16.3667 32.6417 16.7334 32.8417C17.1001 33.0417 17.5334 33.1417 18.0334 33.1417C18.5334 33.1417 18.9667 33.0417 19.3334 32.8417C19.7001 32.6417 19.9834 32.3625 20.1834 32.0083C20.3834 31.6542 20.4834 31.25 20.4834 30.7917V23.8292H20.4876Z" fill="white"/>
<path d="M26.2668 23.8292L28.671 27.825H28.7543L31.1668 23.8292H33.421L30.0585 29.2833L33.471 34.7375H31.1793L28.7502 30.7708H28.6668L26.2377 34.7375H23.9585L27.4043 29.2833L24.0002 23.8292H26.2627H26.2668Z" fill="white"/>
<path d="M68.3542 37.8042C68.0917 37.8042 67.85 37.7833 67.625 37.7417C67.4042 37.7 67.225 37.6542 67.0958 37.6L67.5416 36.0958C67.8208 36.1792 68.0708 36.2167 68.2916 36.2125C68.5125 36.2125 68.7083 36.1417 68.875 36.0083C69.0417 35.875 69.1875 35.6542 69.3042 35.3458L69.4708 34.9042L66.5042 26.5542H68.55L70.4375 32.7333H70.5208L72.4125 26.5542H74.4625L71.1875 35.725C71.0333 36.1583 70.8333 36.5292 70.5791 36.8417C70.325 37.1542 70.0208 37.3917 69.6541 37.5542C69.2916 37.7208 68.8541 37.8042 68.35 37.8042H68.3542Z" fill="white"/>
<path d="M13.9084 49.7375V38.8292H20.8959V40.4875H15.8834V43.45H20.4168V45.1083H15.8834V49.7417H13.9084V49.7375Z" fill="white"/>
<path d="M22.4875 49.7375V41.5542H24.3584V42.9167H24.4459C24.5959 42.4458 24.85 42.0792 25.2167 41.8208C25.5792 41.5625 25.9959 41.4333 26.4667 41.4333C26.575 41.4333 26.6917 41.4333 26.825 41.4458C26.9584 41.4542 27.0709 41.4667 27.1584 41.4875V43.2625C27.075 43.2333 26.95 43.2083 26.7709 43.1833C26.5959 43.1583 26.425 43.15 26.2625 43.15C25.9125 43.15 25.5959 43.225 25.3167 43.375C25.0375 43.525 24.8167 43.7333 24.6584 44C24.5 44.2667 24.4167 44.575 24.4167 44.9208V49.7292H22.4875V49.7375Z" fill="white"/>
<path d="M31.6667 49.8958C30.8667 49.8958 30.175 49.7208 29.5875 49.3667C29 49.0125 28.5459 48.525 28.225 47.8917C27.9042 47.2583 27.7417 46.5208 27.7417 45.675C27.7417 44.8292 27.9 44.0875 28.225 43.4542C28.5459 42.8167 29 42.325 29.5875 41.975C30.175 41.625 30.8667 41.4458 31.6667 41.4458C32.4667 41.4458 33.1584 41.6208 33.7459 41.975C34.3334 42.3292 34.7875 42.8208 35.1084 43.4542C35.4292 44.0917 35.5917 44.8292 35.5917 45.675C35.5917 46.5208 35.4334 47.2583 35.1084 47.8917C34.7875 48.525 34.3334 49.0167 33.7459 49.3667C33.1584 49.7167 32.4667 49.8958 31.6667 49.8958ZM31.6792 48.35C32.1125 48.35 32.475 48.2292 32.7667 47.9917C33.0584 47.75 33.275 47.4292 33.4209 47.025C33.5625 46.6208 33.6375 46.1708 33.6375 45.6708C33.6375 45.1708 33.5667 44.7167 33.4209 44.3083C33.275 43.9 33.0584 43.5792 32.7667 43.3375C32.475 43.0958 32.1125 42.975 31.6792 42.975C31.2459 42.975 30.8667 43.0958 30.575 43.3375C30.2834 43.5792 30.0625 43.9042 29.9209 44.3083C29.7792 44.7167 29.7042 45.1667 29.7042 45.6708C29.7042 46.175 29.775 46.6208 29.9209 47.025C30.0667 47.4292 30.2834 47.75 30.575 47.9917C30.8667 48.2333 31.2375 48.35 31.6792 48.35Z" fill="white"/>
<path d="M39.146 44.9417V49.7375H37.2168V41.5542H39.0585V42.9458H39.1543C39.3418 42.4875 39.6418 42.125 40.0585 41.8542C40.471 41.5833 40.9835 41.45 41.596 41.45C42.1626 41.45 42.6543 41.5708 43.0751 41.8125C43.496 42.0542 43.821 42.4042 44.0543 42.8625C44.2876 43.3208 44.4001 43.875 44.396 44.5292V49.7375H42.4668V44.825C42.4668 44.2792 42.3251 43.85 42.0418 43.5417C41.7585 43.2333 41.371 43.0792 40.871 43.0792C40.5335 43.0792 40.2335 43.1542 39.9751 43.3C39.7126 43.4458 39.5085 43.6583 39.3626 43.9375C39.2168 44.2167 39.1418 44.55 39.1418 44.9458L39.146 44.9417Z" fill="white"/>
<path d="M50.4459 41.5542V43.0458H45.7417V41.5542H50.4459ZM46.9042 39.5917H48.8334V47.2708C48.8334 47.5292 48.875 47.7292 48.9542 47.8625C49.0334 48 49.1417 48.0917 49.2709 48.1417C49.4 48.1917 49.55 48.2167 49.7084 48.2167C49.8292 48.2167 49.9417 48.2083 50.0417 48.1917C50.1417 48.175 50.2209 48.1583 50.275 48.1417L50.6 49.65C50.4959 49.6875 50.35 49.725 50.1625 49.7667C49.9709 49.8083 49.7417 49.8333 49.4667 49.8417C48.9834 49.8542 48.55 49.7833 48.1625 49.6208C47.775 49.4583 47.4709 49.2083 47.2417 48.8667C47.0125 48.525 46.9042 48.1 46.9084 47.5875V39.5875L46.9042 39.5917Z" fill="white"/>
<path d="M56.7543 44.4V45.9875H51.8418V44.4H56.7543Z" fill="white"/>
<path d="M58.8667 49.7375V38.8292H65.9625V40.4875H60.8417V43.45H65.5917V45.1083H60.8417V48.0875H66.0042V49.7458H58.8667V49.7375Z" fill="white"/>
<path d="M69.8252 44.9417V49.7375H67.896V41.5542H69.7377V42.9458H69.8335C70.021 42.4875 70.321 42.125 70.7377 41.8542C71.1502 41.5833 71.6627 41.45 72.2752 41.45C72.8377 41.45 73.3335 41.5708 73.7543 41.8125C74.1752 42.0542 74.5002 42.4042 74.7335 42.8625C74.9668 43.3208 75.0793 43.875 75.0752 44.5292V49.7375H73.146V44.825C73.146 44.2792 73.0043 43.85 72.721 43.5417C72.4377 43.2333 72.0502 43.0792 71.5502 43.0792C71.2127 43.0792 70.9127 43.1542 70.6543 43.3C70.3918 43.4458 70.1877 43.6583 70.0418 43.9375C69.896 44.2167 69.821 44.55 69.821 44.9458L69.8252 44.9417Z" fill="white"/>
<path d="M80.0793 49.8833C79.4377 49.8833 78.8627 49.7167 78.3543 49.3875C77.846 49.0583 77.446 48.5792 77.1502 47.95C76.8543 47.3208 76.7085 46.5583 76.7085 45.6583C76.7085 44.7583 76.8585 43.9792 77.1585 43.3542C77.4585 42.7292 77.8627 42.2542 78.3752 41.9333C78.8877 41.6125 79.4543 41.45 80.0835 41.45C80.5627 41.45 80.9585 41.5292 81.2668 41.6917C81.5752 41.8542 81.821 42.0458 82.0002 42.2708C82.1793 42.4958 82.321 42.7083 82.421 42.9083H82.5002V38.8292H84.4335V49.7375H82.5377V48.45H82.421C82.321 48.65 82.1793 48.8583 81.9877 49.0792C81.8002 49.3 81.5502 49.4917 81.2418 49.6458C80.9335 49.8042 80.546 49.8792 80.0752 49.8792L80.0793 49.8833ZM80.6168 48.3C81.0252 48.3 81.3752 48.1875 81.6627 47.9667C81.9502 47.7458 82.1668 47.4333 82.3168 47.0375C82.4668 46.6375 82.5418 46.175 82.5418 45.6458C82.5418 45.1167 82.4668 44.6583 82.321 44.2667C82.1752 43.875 81.9585 43.5708 81.671 43.3542C81.3835 43.1375 81.0335 43.0292 80.621 43.0292C80.2085 43.0292 79.8335 43.1417 79.546 43.3625C79.2585 43.5875 79.0418 43.8958 78.896 44.2875C78.7502 44.6833 78.6793 45.1333 78.6793 45.6417C78.6793 46.15 78.7543 46.6083 78.9002 47.0083C79.046 47.4083 79.2668 47.7208 79.5543 47.95C79.8418 48.1792 80.2002 48.2917 80.621 48.2917L80.6168 48.3Z" fill="white"/>
<path d="M94.0042 49.7375H90.3083V38.8292H94.0792C95.1625 38.8292 96.0917 39.0458 96.875 39.4833C97.6542 39.9167 98.2542 40.5417 98.6709 41.3542C99.0875 42.1667 99.3 43.1417 99.3 44.275C99.3 45.4083 99.0917 46.3875 98.6709 47.2042C98.25 48.0208 97.6459 48.6458 96.8542 49.0833C96.0625 49.5208 95.1167 49.7375 94.0084 49.7375H94.0042ZM92.2834 48.0292H93.9083C94.6667 48.0292 95.3 47.8917 95.8084 47.6125C96.3167 47.3333 96.6959 46.9167 96.9542 46.3625C97.2084 45.8083 97.3375 45.1125 97.3375 44.2792C97.3375 43.4458 97.2084 42.75 96.9542 42.2C96.7 41.6458 96.3209 41.2333 95.8209 40.9583C95.3209 40.6833 94.7042 40.5458 93.9625 40.5458H92.2792V48.0333L92.2834 48.0292Z" fill="white"/>
<path d="M104.708 49.8958C103.888 49.8958 103.179 49.725 102.588 49.3833C101.992 49.0417 101.538 48.5542 101.217 47.925C100.896 47.2958 100.738 46.55 100.738 45.6958C100.738 44.8417 100.9 44.1167 101.221 43.475C101.542 42.8375 101.992 42.3417 102.571 41.9833C103.15 41.625 103.829 41.45 104.613 41.45C105.117 41.45 105.592 41.5292 106.042 41.6917C106.492 41.8542 106.888 42.1042 107.233 42.4417C107.579 42.7792 107.854 43.2083 108.05 43.7292C108.25 44.25 108.35 44.8667 108.35 45.5875V46.1792H101.642V44.8792H106.5C106.5 44.5083 106.417 44.1792 106.258 43.8917C106.1 43.6042 105.883 43.375 105.604 43.2083C105.325 43.0417 105 42.9583 104.633 42.9583C104.238 42.9583 103.892 43.0542 103.596 43.2417C103.296 43.4333 103.067 43.6792 102.9 43.9875C102.733 44.2958 102.65 44.6292 102.646 44.9958V46.1292C102.646 46.6042 102.733 47.0125 102.908 47.35C103.083 47.6875 103.325 47.95 103.638 48.1292C103.95 48.3083 104.317 48.4 104.733 48.4C105.013 48.4 105.267 48.3583 105.496 48.2792C105.725 48.2 105.921 48.0792 106.088 47.925C106.254 47.7708 106.379 47.575 106.467 47.3458L108.267 47.55C108.154 48.025 107.938 48.4417 107.621 48.7917C107.304 49.1458 106.896 49.4167 106.404 49.6125C105.908 49.8042 105.346 49.9042 104.708 49.9042V49.8958Z" fill="white"/>
<path d="M117.046 41.5542L114.133 49.7375H112.004L109.092 41.5542H111.146L113.025 47.6333H113.108L114.996 41.5542H117.046Z" fill="white"/>
<path d="M121.717 49.8958C120.896 49.8958 120.188 49.725 119.596 49.3833C119 49.0417 118.546 48.5542 118.225 47.925C117.904 47.2958 117.746 46.55 117.746 45.6958C117.746 44.8417 117.908 44.1167 118.229 43.475C118.55 42.8375 119 42.3417 119.579 41.9833C120.158 41.625 120.838 41.45 121.621 41.45C122.125 41.45 122.6 41.5292 123.05 41.6917C123.5 41.8542 123.896 42.1042 124.242 42.4417C124.588 42.7792 124.863 43.2083 125.058 43.7292C125.258 44.25 125.358 44.8667 125.358 45.5875V46.1792H118.65V44.8792H123.508C123.508 44.5083 123.425 44.1792 123.267 43.8917C123.108 43.6042 122.892 43.375 122.613 43.2083C122.333 43.0417 122.008 42.9583 121.642 42.9583C121.246 42.9583 120.9 43.0542 120.604 43.2417C120.304 43.4333 120.075 43.6792 119.908 43.9875C119.742 44.2958 119.658 44.6292 119.654 44.9958V46.1292C119.654 46.6042 119.742 47.0125 119.917 47.35C120.092 47.6875 120.333 47.95 120.646 48.1292C120.958 48.3083 121.325 48.4 121.742 48.4C122.021 48.4 122.275 48.3583 122.504 48.2792C122.733 48.2 122.929 48.0792 123.096 47.925C123.263 47.7708 123.388 47.575 123.475 47.3458L125.275 47.55C125.163 48.025 124.946 48.4417 124.629 48.7917C124.313 49.1458 123.904 49.4167 123.413 49.6125C122.917 49.8042 122.354 49.9042 121.717 49.9042V49.8958Z" fill="white"/>
<path d="M128.913 38.8292V49.7375H126.983V38.8292H128.913Z" fill="white"/>
<path d="M134.467 49.8958C133.667 49.8958 132.975 49.7208 132.388 49.3667C131.8 49.0125 131.346 48.525 131.025 47.8917C130.704 47.2583 130.542 46.5208 130.542 45.675C130.542 44.8292 130.704 44.0875 131.025 43.4542C131.346 42.8167 131.8 42.325 132.388 41.975C132.975 41.625 133.667 41.4458 134.467 41.4458C135.267 41.4458 135.958 41.6208 136.546 41.975C137.133 42.3292 137.588 42.8208 137.908 43.4542C138.229 44.0917 138.392 44.8292 138.392 45.675C138.392 46.5208 138.229 47.2583 137.908 47.8917C137.588 48.525 137.133 49.0167 136.546 49.3667C135.958 49.7167 135.267 49.8958 134.467 49.8958ZM134.479 48.35C134.913 48.35 135.275 48.2292 135.567 47.9917C135.858 47.75 136.075 47.4292 136.221 47.025C136.367 46.6208 136.438 46.1708 136.438 45.6708C136.438 45.1708 136.367 44.7167 136.221 44.3083C136.079 43.9 135.858 43.5792 135.567 43.3375C135.275 43.0958 134.913 42.975 134.479 42.975C134.046 42.975 133.667 43.0958 133.375 43.3375C133.083 43.5792 132.863 43.9042 132.721 44.3083C132.579 44.7167 132.504 45.1667 132.504 45.6708C132.504 46.175 132.575 46.6208 132.721 47.025C132.867 47.4292 133.083 47.75 133.375 47.9917C133.667 48.2333 134.038 48.35 134.479 48.35Z" fill="white"/>
<path d="M140.017 52.8042V41.5542H141.913V42.9083H142.025C142.125 42.7083 142.267 42.4958 142.446 42.2708C142.625 42.0458 142.871 41.85 143.179 41.6917C143.488 41.5333 143.884 41.45 144.363 41.45C144.996 41.45 145.567 41.6083 146.075 41.9333C146.584 42.2542 146.988 42.7292 147.292 43.3542C147.592 43.9792 147.742 44.75 147.742 45.6583C147.742 46.5667 147.596 47.3208 147.3 47.95C147.004 48.5792 146.604 49.0583 146.096 49.3875C145.588 49.7167 145.013 49.8833 144.371 49.8833C143.904 49.8833 143.513 49.8042 143.204 49.65C142.896 49.4917 142.646 49.3042 142.463 49.0833C142.275 48.8625 142.134 48.65 142.029 48.4542H141.95V52.8125H140.021L140.017 52.8042ZM141.909 45.6458C141.909 46.175 141.984 46.6375 142.134 47.0375C142.284 47.4375 142.504 47.7458 142.788 47.9667C143.075 48.1875 143.421 48.3 143.829 48.3C144.238 48.3 144.613 48.1875 144.9 47.9583C145.188 47.7292 145.404 47.4167 145.554 47.0167C145.704 46.6167 145.775 46.1625 145.775 45.65C145.775 45.1375 145.704 44.6917 145.559 44.2958C145.413 43.9 145.196 43.5917 144.909 43.3708C144.621 43.15 144.263 43.0375 143.834 43.0375C143.404 43.0375 143.071 43.1458 142.784 43.3625C142.496 43.5792 142.279 43.8833 142.129 44.275C141.984 44.6667 141.909 45.125 141.909 45.6542V45.6458Z" fill="white"/>
<path d="M153.008 49.8958C152.188 49.8958 151.479 49.725 150.888 49.3833C150.292 49.0417 149.838 48.5542 149.517 47.925C149.196 47.2958 149.038 46.55 149.038 45.6958C149.038 44.8417 149.2 44.1167 149.521 43.475C149.842 42.8375 150.292 42.3417 150.871 41.9833C151.45 41.625 152.129 41.45 152.913 41.45C153.417 41.45 153.892 41.5292 154.342 41.6917C154.792 41.8542 155.188 42.1042 155.533 42.4417C155.879 42.7792 156.154 43.2083 156.35 43.7292C156.55 44.25 156.65 44.8667 156.65 45.5875V46.1792H149.942V44.8792H154.8C154.8 44.5083 154.717 44.1792 154.558 43.8917C154.4 43.6042 154.183 43.375 153.904 43.2083C153.625 43.0417 153.3 42.9583 152.933 42.9583C152.538 42.9583 152.192 43.0542 151.896 43.2417C151.596 43.4333 151.367 43.6792 151.2 43.9875C151.033 44.2958 150.95 44.6292 150.946 44.9958V46.1292C150.946 46.6042 151.033 47.0125 151.208 47.35C151.383 47.6875 151.625 47.95 151.938 48.1292C152.25 48.3083 152.617 48.4 153.033 48.4C153.313 48.4 153.567 48.3583 153.796 48.2792C154.025 48.2 154.221 48.0792 154.388 47.925C154.554 47.7708 154.679 47.575 154.767 47.3458L156.567 47.55C156.454 48.025 156.238 48.4417 155.921 48.7917C155.604 49.1458 155.196 49.4167 154.704 49.6125C154.208 49.8042 153.646 49.9042 153.008 49.9042V49.8958Z" fill="white"/>
<path d="M158.275 49.7375V41.5542H160.146V42.9167H160.229C160.379 42.4458 160.634 42.0792 161 41.8208C161.363 41.5625 161.779 41.4333 162.25 41.4333C162.359 41.4333 162.475 41.4333 162.609 41.4458C162.742 41.4542 162.854 41.4667 162.942 41.4875V43.2625C162.859 43.2333 162.729 43.2083 162.554 43.1833C162.379 43.1583 162.209 43.15 162.046 43.15C161.696 43.15 161.379 43.225 161.1 43.375C160.821 43.525 160.6 43.7333 160.442 44C160.283 44.2667 160.2 44.575 160.2 44.9208V49.7292H158.271L158.275 49.7375Z" fill="white"/>
</svg>
