<svg width="48" height="48" viewBox="0 0 48 48" fill="none" xmlns="http://www.w3.org/2000/svg">
<g opacity="0.5">
<path d="M25.6951 39.2862L23.2501 33.5412C25.6051 32.6712 27.8101 31.5012 29.8501 30.1362L25.6951 39.2862ZM14.4601 24.7512L8.71509 22.3062L17.8651 18.1512C16.5001 20.1912 15.3301 22.3962 14.4601 24.7512ZM34.8301 12.0012C35.2501 12.0012 35.6251 12.0012 35.9401 12.0762C36.1951 14.1612 35.9101 18.4512 30.9901 23.3712C28.4401 25.9362 25.3951 27.9012 21.9751 29.2062L18.7501 26.0562C20.1301 22.5912 22.0951 19.5462 24.6301 17.0112C28.7701 12.8712 32.4601 12.0012 34.8301 12.0012ZM34.8301 9.00122C31.8601 9.00122 27.3601 10.0362 22.5001 14.8962C19.2151 18.1812 17.2501 21.7962 15.9751 24.9612C15.5551 26.0862 15.8401 27.3162 16.6651 28.1562L19.8601 31.3362C20.4301 31.9062 21.1951 32.2512 21.9901 32.2512C22.3351 32.2512 22.6951 32.1612 23.0401 32.0262C26.2501 30.7962 29.8201 28.7862 33.1051 25.5012C41.5951 17.0112 38.4151 9.58622 38.4151 9.58622C38.4151 9.58622 37.0501 9.00122 34.8301 9.00122ZM27.8101 20.1912C26.6401 19.0212 26.6401 17.1162 27.8101 15.9462C28.9801 14.7762 30.8851 14.7762 32.0551 15.9462C33.2101 17.1162 33.2251 19.0212 32.0551 20.1912C30.8851 21.3612 28.9801 21.3612 27.8101 20.1912ZM15.3601 39.0012L20.8201 33.5412C20.3101 33.4062 19.8151 33.1812 19.3651 32.8662L13.2451 39.0012H15.3601ZM9.00009 39.0012H11.1151L18.2701 31.8612L16.1401 29.7462L9.00009 36.8862V39.0012ZM9.00009 34.7562L15.1351 28.6362C14.8201 28.1862 14.5951 27.7062 14.4601 27.1812L9.00009 32.6412V34.7562Z" fill="#EF7D00"/>
</g>
</svg>
