<svg width="48" height="48" viewBox="0 0 48 48" fill="none" xmlns="http://www.w3.org/2000/svg">
<g opacity="0.5">
<path d="M38.565 36.4362L36.435 38.5662C36.1539 38.8456 35.7737 39.0024 35.3775 39.0024C34.9812 39.0024 34.601 38.8456 34.32 38.5662L16.5 20.7762C16.0122 20.9175 15.5077 20.9932 15 21.0012C14.0449 21.0005 13.1038 20.7719 12.255 20.3343C11.4061 19.8966 10.6739 19.2627 10.1194 18.4852C9.56481 17.7076 9.20388 16.8089 9.06658 15.8638C8.92928 14.9187 9.01958 13.9544 9.32997 13.0512L13.14 16.8612L13.935 16.0662L16.065 13.9362L16.86 13.1412L13.05 9.33122C13.9532 9.02083 14.9174 8.93053 15.8625 9.06783C16.8077 9.20513 17.7064 9.56606 18.4839 10.1206C19.2615 10.6752 19.8954 11.4073 20.333 12.2562C20.7706 13.1051 20.9993 14.0462 21 15.0012C20.9919 15.509 20.9163 16.0134 20.775 16.5012L38.565 34.3212C38.8443 34.6023 39.0012 34.9824 39.0012 35.3787C39.0012 35.775 38.8443 36.1552 38.565 36.4362ZM9.43497 34.3212C9.15559 34.6023 8.99878 34.9824 8.99878 35.3787C8.99878 35.775 9.15559 36.1552 9.43497 36.4362L11.565 38.5662C11.846 38.8456 12.2262 39.0024 12.6225 39.0024C13.0187 39.0024 13.3989 38.8456 13.68 38.5662L21.885 30.3762L17.64 26.1312M36 9.00122L30 12.0012V15.0012L26.745 18.2562L29.745 21.2562L33 18.0012H36L39 12.0012L36 9.00122Z" fill="#EF7D00"/>
</g>
</svg>
